<svg width="157" height="30" viewBox="0 0 157 30" fill="none" xmlns="http://www.w3.org/2000/svg">
<path d="M3.82878 8.80417C1.35659 10.5926 -0.531798 13.7974 0.135394 16.9122C0.629831 19.2227 2.30377 21.1912 4.19812 22.4995C4.29939 22.5656 4.16995 22.4879 4.53767 22.7276C2.31568 20.195 1.27915 16.8402 2.91139 13.7134C3.72155 12.159 5.13337 10.7486 6.712 9.98646C10.6377 8.08999 15.8084 10.1125 19.3648 12.255C22.7782 14.1875 26.1976 16.12 29.611 18.0464C31.7674 19.2647 33.8703 20.7351 36.1697 21.6653C38.4691 22.5956 41.0188 23.3037 43.479 23.4058C46.6601 23.5378 50.8718 22.8056 52.8674 19.9489C53.5227 19.0067 53.7788 17.8724 53.5941 16.7381C53.5167 16.258 53.3753 15.9265 53.1668 15.4884C53.0536 15.2483 52.498 14.2835 52.498 14.2835C52.5814 17.7524 48.9357 20.201 45.8559 20.5911C42.4961 21.0172 38.9338 19.9489 35.9672 18.4065C35.8897 18.3645 35.0379 17.8664 35.026 17.8784C39.5772 12.213 43.479 6.79735 52.2836 10.5446C53.2784 11.0847 54.2137 11.7629 55 12.5791C53.618 6.13351 45.4032 5.36532 40.4648 7.80792C38.5704 8.74415 36.9382 10.1245 35.5144 11.6729C35.2166 11.997 31.9342 16.126 31.9581 16.138L24.3449 11.8349L32.9827 0H28.6161C28.5804 0 28.4493 0.222054 28.4315 0.252061C28.2647 0.480117 28.0919 0.708173 27.9251 0.936229C27.6749 1.27831 27.4247 1.61439 27.1686 1.95648C26.8588 2.37658 26.549 2.79069 26.2393 3.21079C25.8997 3.67291 25.5542 4.13502 25.2147 4.59713C24.8751 5.05925 24.5177 5.53937 24.1662 6.01348C23.8147 6.4876 23.505 6.9137 23.1714 7.35781C22.8795 7.74791 22.5935 8.13801 22.3016 8.5341C22.0812 8.83418 21.8608 9.13425 21.6345 9.43433C21.5034 9.60837 21.3783 9.78241 21.2472 9.95645C21.2234 9.98646 21.1996 10.0165 21.1817 10.0465C21.1341 10.0105 21.0507 9.95045 20.9911 9.91445C20.9017 9.86043 20.8064 9.80642 20.7111 9.7524C20.5026 9.63237 20.2882 9.51835 20.0737 9.39832C19.9426 9.3263 19.8116 9.23627 19.6686 9.17626C16.3624 7.3038 12.2163 6.27754 8.43359 6.9077C6.90262 7.16576 5.42527 7.7239 4.12663 8.58811C4.02536 8.65413 3.92409 8.72615 3.81686 8.79817L3.82878 8.80417Z" fill="black"/>
<path d="M21.7536 15.2378L18.7214 13.4913C18.5665 13.5213 16.6662 15.8739 16.4101 16.114C15.5701 16.9002 14.7481 17.7284 13.8545 18.4546C12.2997 19.7209 10.5364 20.5791 8.51696 20.6991C8.02848 20.7291 7.54 20.7291 7.05152 20.6991C6.92642 20.6931 5.94983 20.6235 5.88989 20.5491C7.40895 22.4756 10.1015 22.7816 12.3593 22.2895C15.6714 21.6293 18.4712 18.9947 20.729 16.4561C20.8064 16.366 21.7536 15.2378 21.7536 15.2378Z" fill="black"/>
<path d="M32.5672 21.4108L29.4397 19.6583L22.041 29.8968H26.3539L32.5672 21.4108Z" fill="black"/>
<path d="M156.994 21.6152C156.111 23.2694 154.996 24.4757 153.645 25.2401C152.299 26.0044 150.918 26.3866 149.507 26.3866C148.494 26.3866 147.51 26.1955 146.538 25.8134C145.589 25.4312 144.748 24.8698 144.013 24.1293C143.278 23.3888 142.685 22.4751 142.246 21.3942C141.808 20.3133 141.582 19.0831 141.582 17.7036C141.582 16.3241 141.802 15.1895 142.246 14.1743C142.709 13.1352 143.307 12.2633 144.048 11.5646C144.807 10.842 145.66 10.3046 146.609 9.94029C147.557 9.58198 148.524 9.39685 149.513 9.39685C150.503 9.39685 151.428 9.58794 152.228 9.97014C153.052 10.3284 153.746 10.8002 154.315 11.3675C154.884 11.917 155.317 12.5201 155.607 13.183C155.921 13.8399 156.081 14.4669 156.081 15.0581C156.081 15.3149 156.016 15.4821 155.892 15.5657C155.785 15.6493 155.619 15.727 155.388 15.7867L144.398 19.1608C144.588 20.1162 144.902 20.9642 145.346 21.7047C145.791 22.4452 146.295 23.0723 146.864 23.5799C147.451 24.0696 148.097 24.4518 148.79 24.7265C149.507 24.9833 150.231 25.1087 150.966 25.1087C152.039 25.1087 153.094 24.822 154.125 24.2487C155.18 23.6575 156.069 22.7319 156.81 21.4838L157 21.6092L156.994 21.6152ZM144.179 16.8736C144.179 17.2319 144.19 17.5723 144.208 17.8888C144.232 18.2053 144.273 18.5158 144.333 18.8084L152.288 16.4197C152.857 16.2525 153.224 16.0793 153.39 15.9121C153.556 15.721 153.645 15.4463 153.645 15.082C153.645 13.1531 153.236 11.7736 152.412 10.9495C151.612 10.1015 150.646 9.67753 149.507 9.67753C147.8 9.67753 146.484 10.3165 145.56 11.5885C144.635 12.8605 144.173 14.6222 144.173 16.8676L144.179 16.8736Z" fill="black"/>
<path d="M119.929 17.8948V20.4686C119.953 21.4241 119.983 22.3259 120.024 23.1739C120.089 23.998 120.172 24.7027 120.279 25.27C120.403 25.8194 120.575 26.0941 120.783 26.0941H118.637C118.85 26.0941 119.004 25.8194 119.111 25.27C119.236 24.6967 119.319 23.998 119.366 23.1739C119.431 22.3259 119.461 21.4241 119.461 20.4686C119.485 19.5131 119.491 18.6532 119.491 17.8948V9.46857C119.491 8.51308 119.461 7.62328 119.396 6.79917C119.354 5.95117 119.271 5.25248 119.141 4.6971C119.016 4.12381 118.827 3.83716 118.572 3.83716H121.571L128.862 18.8801L135.714 3.83716H138.714C138.483 3.83716 138.305 4.12381 138.174 4.6971C138.05 5.24651 137.955 5.95117 137.89 6.79917C137.848 7.62328 137.819 8.51905 137.795 9.46857V20.4746C137.813 21.4301 137.848 22.3318 137.89 23.1798C137.955 24.0039 138.05 24.7086 138.174 25.2759C138.299 25.8253 138.477 26.1001 138.714 26.1001H134.327C134.582 26.1001 134.772 25.8253 134.896 25.2759C135.021 24.7026 135.11 24.0039 135.151 23.1798C135.217 22.3318 135.246 21.4301 135.246 20.4746C135.27 19.5191 135.276 18.6592 135.276 17.9008V5.90938L127.795 22.1288H127.54L119.929 6.22588V17.9008V17.8948Z" fill="black"/>
<path d="M115.709 21.6152C114.826 23.2694 113.711 24.4757 112.36 25.2401C111.014 26.0044 109.633 26.3866 108.222 26.3866C107.209 26.3866 106.225 26.1955 105.253 25.8134C104.304 25.4312 103.462 24.8698 102.727 24.1293C101.992 23.3888 101.4 22.4751 100.961 21.3942C100.522 20.3133 100.297 19.0831 100.297 17.7036C100.297 16.3241 100.516 15.1895 100.961 14.1743C101.423 13.1352 102.022 12.2633 102.763 11.5646C103.522 10.842 104.375 10.3046 105.318 9.94029C106.266 9.58198 107.232 9.39685 108.222 9.39685C109.212 9.39685 110.137 9.58794 110.937 9.97014C111.755 10.3284 112.455 10.8002 113.024 11.3675C113.593 11.917 114.025 12.5201 114.316 13.183C114.63 13.8399 114.79 14.4669 114.79 15.0581C114.79 15.3149 114.725 15.4821 114.6 15.5657C114.494 15.6493 114.328 15.727 114.097 15.7867L103.107 19.1608C103.296 20.1162 103.611 20.9642 104.055 21.7047C104.5 22.4452 105.004 23.0723 105.573 23.5799C106.16 24.0696 106.806 24.4518 107.499 24.7265C108.216 24.9833 108.94 25.1087 109.681 25.1087C110.753 25.1087 111.809 24.822 112.84 24.2487C113.895 23.6575 114.79 22.7319 115.525 21.4838L115.715 21.6092L115.709 21.6152ZM102.893 16.8736C102.893 17.2319 102.905 17.5723 102.923 17.8888C102.941 18.2053 102.988 18.5158 103.048 18.8084L111.002 16.4197C111.571 16.2525 111.939 16.0793 112.105 15.9121C112.271 15.721 112.36 15.4463 112.36 15.082C112.36 13.1531 111.951 11.7736 111.127 10.9495C110.327 10.1015 109.36 9.67753 108.222 9.67753C106.515 9.67753 105.199 10.3165 104.275 11.5885C103.35 12.8605 102.887 14.6222 102.887 16.8676L102.893 16.8736Z" fill="black"/>
<path d="M98.0742 21.6152C97.1909 23.2694 96.0765 24.4757 94.725 25.2401C93.3795 26.0044 91.9983 26.3866 90.5876 26.3866C89.574 26.3866 88.59 26.1955 87.6178 25.8134C86.6694 25.4312 85.8277 24.8698 85.0927 24.1293C84.3576 23.3888 83.7649 22.4751 83.3262 21.3942C82.8817 20.3133 82.6624 19.0831 82.6624 17.7036C82.6624 16.3241 82.8817 15.1895 83.3262 14.1743C83.7886 13.1352 84.3873 12.2633 85.1282 11.5646C85.887 10.842 86.7406 10.3046 87.689 9.94029C88.6374 9.58198 89.6036 9.39685 90.5935 9.39685C91.5834 9.39685 92.5081 9.58794 93.3083 9.97014C94.1264 10.3284 94.8258 10.8002 95.3949 11.3675C95.9639 11.917 96.3966 12.5201 96.6871 13.183C97.0012 13.8399 97.1613 14.4669 97.1613 15.0581C97.1613 15.3149 97.0961 15.4821 96.9716 15.5657C96.8649 15.6493 96.6989 15.727 96.4678 15.7867L85.478 19.1608C85.6677 20.1162 85.9818 20.9642 86.4264 21.7047C86.871 22.4452 87.3748 23.0723 87.9439 23.5799C88.5307 24.0696 89.1768 24.4518 89.8703 24.7265C90.5876 24.9833 91.3107 25.1087 92.0458 25.1087C93.1187 25.1087 94.1738 24.822 95.2052 24.2487C96.2603 23.6575 97.1554 22.7319 97.8904 21.4838L98.0801 21.6092L98.0742 21.6152ZM85.2586 16.8736C85.2586 17.2319 85.2705 17.5723 85.2883 17.8888C85.312 18.2053 85.3535 18.5158 85.4128 18.8084L93.3676 16.4197C93.9367 16.2525 94.3042 16.0793 94.4702 15.9121C94.6361 15.721 94.725 15.4463 94.725 15.082C94.725 13.1531 94.316 11.7736 93.4921 10.9495C92.6919 10.1015 91.7257 9.67753 90.5876 9.67753C88.8804 9.67753 87.5645 10.3165 86.6398 11.5885C85.7151 12.8605 85.2527 14.6222 85.2527 16.8676L85.2586 16.8736Z" fill="black"/>
<path d="M79.1646 20.0267C79.1646 21.1733 78.9453 22.1586 78.5007 22.9827C78.0561 23.7889 77.4693 24.4578 76.7343 24.9833C75.9993 25.5148 75.1457 25.897 74.1795 26.1299C73.2133 26.3867 72.1878 26.5121 71.1149 26.5121C69.6804 26.5121 68.2519 26.309 66.8233 25.9089C65.4125 25.5088 64.1381 24.9355 63 24.189L64.4819 21.7406C65.4303 23.2694 66.5744 24.3801 67.9259 25.0788C69.2714 25.7775 70.5873 26.1299 71.8736 26.1299C72.5494 26.1299 73.1896 26.0343 73.8001 25.8432C74.4107 25.6521 74.9382 25.3774 75.3769 25.0191C75.8392 24.6369 76.2008 24.1831 76.4498 23.6516C76.7224 23.1201 76.8588 22.505 76.8588 21.8063C76.8588 20.7254 76.5446 19.7938 75.9104 19.0055C75.2761 18.2232 74.4877 17.5126 73.5452 16.8736C72.6205 16.2346 71.6069 15.6314 70.5162 15.0581C69.4196 14.4849 68.4001 13.8817 67.4516 13.2427C66.5269 12.5858 65.7445 11.8752 65.1162 11.1108C64.4819 10.3285 64.1677 9.40285 64.1677 8.34584C64.1677 7.52173 64.3574 6.78719 64.7368 6.14821C65.1339 5.50923 65.6496 4.98371 66.2839 4.55971C66.9359 4.13571 67.6828 3.81921 68.5245 3.60422C69.39 3.39521 70.285 3.28772 71.2098 3.28772C72.2174 3.28772 73.2311 3.42506 74.2388 3.69977C75.2702 3.95655 76.2245 4.35667 77.1137 4.90607L75.9459 7.03801C74.9975 5.97503 73.9661 5.17481 72.8517 4.61943C71.7373 4.04614 70.6822 3.75949 69.6923 3.75949C68.7024 3.75949 67.914 4.04614 67.262 4.61943C66.6099 5.19272 66.2839 6.08252 66.2839 7.28883C66.2839 8.07113 66.5981 8.79372 67.2323 9.45062C67.8666 10.0896 68.6549 10.7107 69.5974 11.3258C70.5636 11.917 71.6069 12.5142 72.7213 13.1054C73.8357 13.6966 74.8671 14.3356 75.8155 15.0163C76.7817 15.6971 77.5819 16.4376 78.2162 17.2438C78.8505 18.05 79.1646 18.9697 79.1646 20.0088V20.0267Z" fill="black"/>
</svg>
