<svg width="20" height="20" viewBox="0 0 20 20" fill="none" xmlns="http://www.w3.org/2000/svg">
<path d="M12.5 4.1665H16.6667C17.4523 4.1665 17.8452 4.1665 18.0893 4.41059C18.3333 4.65467 18.3333 5.0475 18.3333 5.83317V14.1665C18.3333 14.9522 18.3333 15.345 18.0893 15.5891C17.8452 15.8332 17.4523 15.8332 16.6667 15.8332H12.5" stroke="#D0D0D0" stroke-width="2" stroke-linecap="round" stroke-linejoin="round"/>
<path d="M7.49984 4.1665H3.33317C2.5475 4.1665 2.15466 4.1665 1.91058 4.41059C1.6665 4.65467 1.6665 5.0475 1.6665 5.83317V14.1665C1.6665 14.9522 1.6665 15.345 1.91058 15.5891C2.15466 15.8332 2.5475 15.8332 3.33317 15.8332H7.49984" stroke="#D0D0D0" stroke-width="2" stroke-linecap="round" stroke-linejoin="round"/>
<path d="M10 2.5V17.5" stroke="#D0D0D0" stroke-width="2" stroke-linecap="round" stroke-linejoin="round"/>
</svg>
