<svg width="19" height="17" viewBox="0 0 19 17" fill="none" xmlns="http://www.w3.org/2000/svg">
<path d="M11.8335 2.6665H16.0002C16.7858 2.6665 17.1787 2.6665 17.4227 2.91059C17.6668 3.15467 17.6668 3.5475 17.6668 4.33317V12.6665C17.6668 13.4522 17.6668 13.845 17.4227 14.0891C17.1787 14.3332 16.7858 14.3332 16.0002 14.3332H11.8335" stroke="black" stroke-width="2" stroke-linecap="round" stroke-linejoin="round"/>
<path d="M6.83333 2.6665H2.66667C1.88099 2.6665 1.48815 2.6665 1.24408 2.91059C1 3.15467 1 3.5475 1 4.33317V12.6665C1 13.4522 1 13.845 1.24408 14.0891C1.48815 14.3332 1.88099 14.3332 2.66667 14.3332H6.83333" stroke="black" stroke-width="2" stroke-linecap="round" stroke-linejoin="round"/>
<path d="M9.3335 1V16" stroke="black" stroke-width="2" stroke-linecap="round" stroke-linejoin="round"/>
</svg>
