<svg width="32" height="32" viewBox="0 0 32 32" fill="none" xmlns="http://www.w3.org/2000/svg">
<path d="M21.9549 17.5542C21.965 17.505 22.0352 17.505 22.0453 17.5542C22.5668 20.1058 24.5608 22.0998 27.1124 22.6214C27.1616 22.6314 27.1616 22.7017 27.1124 22.7117C24.5608 23.2332 22.5668 25.2273 22.0453 27.7789C22.0352 27.828 21.965 27.828 21.9549 27.7789C21.4334 25.2273 19.4394 23.2332 16.8878 22.7117C16.8386 22.7017 16.8386 22.6314 16.8878 22.6214C19.4394 22.0998 21.4334 20.1058 21.9549 17.5542Z" stroke="#0ABAB5" stroke-width="2"/>
<path d="M27.6249 14.5014C27.7084 14.0933 28.2915 14.0933 28.375 14.5014C28.5592 15.4029 29.2637 16.1074 30.1652 16.2916C30.5733 16.3751 30.5733 16.9582 30.1652 17.0417C29.2637 17.2259 28.5592 17.9304 28.375 18.8319C28.2915 19.24 27.7084 19.24 27.6249 18.8319C27.4407 17.9304 26.7362 17.2259 25.8347 17.0417C25.4266 16.9582 25.4266 16.3751 25.8347 16.2916C26.7362 16.1074 27.4407 15.4029 27.6249 14.5014Z" fill="#0ABAB5"/>
<path d="M15.3333 27.9999C8.7059 27.9999 3.33331 25.6121 3.33331 22.6666C3.33331 19.7211 8.7059 17.3333 15.3333 17.3333M14.6666 13.9999C12.4575 13.9999 10.6666 12.2091 10.6666 9.99992V7.33325C10.6666 5.12411 12.4575 3.33325 14.6666 3.33325C16.8758 3.33325 18.6666 5.12411 18.6666 7.33325V9.99992C18.6666 12.2091 16.8758 13.9999 14.6666 13.9999Z" stroke="#5D5D5D" stroke-width="2" stroke-linecap="round"/>
</svg>
