<svg width="32" height="32" viewBox="0 0 32 32" fill="none" xmlns="http://www.w3.org/2000/svg">
<path d="M23.2918 12.3912C23.1527 11.7109 22.1807 11.7109 22.0417 12.3912C21.7346 13.8936 20.5605 15.0678 19.0581 15.3749C18.3778 15.5139 18.3778 16.4859 19.0581 16.6249C20.5605 16.932 21.7346 18.1061 22.0417 19.6086C22.1807 20.2888 23.1527 20.2888 23.2918 19.6086C23.5988 18.1061 24.773 16.932 26.2754 16.6249C26.9557 16.4859 26.9557 15.5139 26.2754 15.3749C24.773 15.0678 23.5988 13.8936 23.2918 12.3912Z" fill="#0ABAB5"/>
<path d="M27.0418 7.83468C26.9583 7.42652 26.3751 7.42652 26.2917 7.83468C26.1075 8.73614 25.403 9.44063 24.5015 9.62488C24.0934 9.7083 24.0934 10.2915 24.5015 10.3749C25.403 10.5592 26.1075 11.2636 26.2917 12.1651C26.3751 12.5733 26.9583 12.5733 27.0418 12.1651C27.226 11.2636 27.9305 10.5592 28.8319 10.3749C29.2401 10.2915 29.2401 9.7083 28.8319 9.62488C27.9305 9.44063 27.226 8.73614 27.0418 7.83468Z" fill="#0ABAB5"/>
<path d="M14.6667 4.66675L14.6667 27.3334M20.0001 10.0001L20 11.3334M20.0001 20.6667L20 22.0001M9.3334 10.0001L9.33333 22.0001M4.00007 14.6667L4 17.3334" stroke="black" stroke-opacity="0.6" stroke-width="2" stroke-linecap="round"/>
</svg>
