<svg width="32" height="32" viewBox="0 0 32 32" fill="none" xmlns="http://www.w3.org/2000/svg">
<path d="M25.9605 19.5266C25.9693 19.4836 26.0308 19.4836 26.0395 19.5266C26.4959 21.7593 28.2407 23.5041 30.4733 23.9604C30.5163 23.9692 30.5163 24.0307 30.4733 24.0395C28.2407 24.4958 26.4959 26.2406 26.0395 28.4732C26.0308 28.5163 25.9693 28.5163 25.9605 28.4732C25.5042 26.2406 23.7594 24.4958 21.5267 24.0395C21.4837 24.0307 21.4837 23.9692 21.5267 23.9604C23.7594 23.5041 25.5042 21.7593 25.9605 19.5266Z" stroke="#0ABAB5" stroke-width="2"/>
<path d="M19.625 13.8347C19.7084 13.4265 20.2916 13.4265 20.375 13.8347C20.5592 14.7361 21.2637 15.4406 22.1652 15.6249C22.5733 15.7083 22.5733 16.2915 22.1652 16.3749C21.2637 16.5592 20.5592 17.2636 20.375 18.1651C20.2916 18.5733 19.7084 18.5733 19.625 18.1651C19.4407 17.2636 18.7362 16.5592 17.8348 16.3749C17.4266 16.2915 17.4266 15.7083 17.8348 15.6249C18.7362 15.4406 19.4407 14.7361 19.625 13.8347Z" fill="#0ABAB5"/>
<path d="M4.66666 11.8666H3.66666V11.8666L4.66666 11.8666ZM9.13681 27.1765L9.45303 28.1252L9.45304 28.1252L9.13681 27.1765ZM15.4163 27.7123L14.9374 26.8344H14.9374L15.4163 27.7123ZM17.8122 27.5445C18.297 27.28 18.4757 26.6726 18.2112 26.1877C17.9468 25.7029 17.3393 25.5242 16.8545 25.7887L17.3333 26.6666L17.8122 27.5445ZM26.3333 15.3333C26.3333 15.8855 26.781 16.3333 27.3333 16.3333C27.8856 16.3333 28.3333 15.8855 28.3333 15.3333H27.3333H26.3333ZM12.0084 27.5611L11.4537 28.3931L11.4537 28.3932L12.0084 27.5611ZM4.66667 24.9733L3.66667 24.9733L3.66667 24.9758L4.66667 24.9733ZM8.17041 27.4987L8.48432 28.4481L8.48663 28.4473L8.17041 27.4987ZM7.57871 3.91455L7.12472 3.02354L7.57871 3.91455ZM5.24796 6.2453L6.13897 6.69929L5.24796 6.2453ZM24.4213 3.91455L24.8753 3.02354V3.02354L24.4213 3.91455ZM26.752 6.2453L27.643 5.79131V5.79131L26.752 6.2453ZM11.3333 8.99992C10.781 8.99992 10.3333 9.44763 10.3333 9.99992C10.3333 10.5522 10.781 10.9999 11.3333 10.9999V9.99992V8.99992ZM20.6667 10.9999C21.2189 10.9999 21.6667 10.5522 21.6667 9.99992C21.6667 9.44763 21.2189 8.99992 20.6667 8.99992V9.99992V10.9999ZM11.3333 14.9999C10.781 14.9999 10.3333 15.4476 10.3333 15.9999C10.3333 16.5522 10.781 16.9999 11.3333 16.9999V15.9999V14.9999ZM13.6667 16.9999C14.2189 16.9999 14.6667 16.5522 14.6667 15.9999C14.6667 15.4476 14.2189 14.9999 13.6667 14.9999V15.9999V16.9999ZM18.8 3.33325V2.33325H13.2V3.33325V4.33325H18.8V3.33325ZM15.4163 27.7123L15.8951 28.5902L17.8122 27.5445L17.3333 26.6666L16.8545 25.7887L14.9374 26.8344L15.4163 27.7123ZM27.3333 15.3333H28.3333V11.8666H27.3333H26.3333V15.3333H27.3333ZM9.13681 27.1765L9.45304 28.1252C10.1256 27.901 10.8639 27.9999 11.4537 28.3931L12.0084 27.5611L12.5631 26.729C11.4598 25.9935 10.0786 25.8085 8.82058 26.2279L9.13681 27.1765ZM4.66667 24.9733L3.66667 24.9758C3.67278 27.4709 6.11527 29.2314 8.48432 28.4481L8.17041 27.4987L7.85651 26.5492C6.77967 26.9052 5.66944 26.105 5.66667 24.9709L4.66667 24.9733ZM13.2 3.33325V2.33325C11.723 2.33325 10.5552 2.33247 9.61564 2.40924C8.66446 2.48695 7.85962 2.64909 7.12472 3.02354L7.57871 3.91455L8.03271 4.80556C8.43867 4.59871 8.951 4.4702 9.77851 4.40259C10.6177 4.33403 11.69 4.33325 13.2 4.33325V3.33325ZM4.66666 11.8666H5.66666C5.66666 10.3566 5.66744 9.28427 5.73601 8.44509C5.80362 7.61759 5.93212 7.10526 6.13897 6.69929L5.24796 6.2453L4.35696 5.79131C3.98251 6.52621 3.82036 7.33105 3.74265 8.28223C3.66589 9.22174 3.66666 10.3896 3.66666 11.8666H4.66666ZM7.57871 3.91455L7.12472 3.02354C5.93303 3.63074 4.96415 4.59962 4.35696 5.79131L5.24796 6.2453L6.13897 6.69929C6.55442 5.88392 7.21734 5.22101 8.03271 4.80556L7.57871 3.91455ZM12.0084 27.5611L11.4537 28.3932C12.7826 29.279 14.4931 29.3549 15.8951 28.5902L15.4163 27.7123L14.9374 26.8344C14.1879 27.2432 13.2735 27.2026 12.5631 26.729L12.0084 27.5611ZM18.8 3.33325V4.33325C20.31 4.33325 21.3823 4.33403 22.2215 4.40259C23.049 4.4702 23.5613 4.59871 23.9673 4.80556L24.4213 3.91455L24.8753 3.02354C24.1404 2.64909 23.3355 2.48695 22.3844 2.40924C21.4448 2.33247 20.277 2.33325 18.8 2.33325V3.33325ZM27.3333 11.8666H28.3333C28.3333 10.3896 28.3341 9.22174 28.2573 8.28223C28.1796 7.33105 28.0175 6.52621 27.643 5.79131L26.752 6.2453L25.861 6.69929C26.0679 7.10526 26.1964 7.61759 26.264 8.44509C26.3326 9.28427 26.3333 10.3566 26.3333 11.8666H27.3333ZM24.4213 3.91455L23.9673 4.80556C24.7827 5.22101 25.4456 5.88392 25.861 6.69929L26.752 6.2453L27.643 5.79131C27.0358 4.59962 26.067 3.63074 24.8753 3.02354L24.4213 3.91455ZM11.3333 9.99992V10.9999H20.6667V9.99992V8.99992H11.3333V9.99992ZM11.3333 15.9999V16.9999H13.6667V15.9999V14.9999H11.3333V15.9999ZM4.66666 11.8666L3.66666 11.8666L3.66667 24.9733L4.66667 24.9733H5.66667L5.66666 11.8666L4.66666 11.8666ZM8.17041 27.4987L8.48663 28.4473L9.45303 28.1252L9.13681 27.1765L8.82059 26.2279L7.85419 26.55L8.17041 27.4987Z" fill="black" fill-opacity="0.6"/>
</svg>
