<svg width="32" height="32" viewBox="0 0 32 32" fill="none" xmlns="http://www.w3.org/2000/svg">
<path d="M12.5492 4.45425C13.1196 4.3014 13.981 4.18509 14.6845 4.10807C14.9839 4.07529 15.1336 4.0589 15.4543 4.04963C15.6534 4.04387 16.1099 4.05507 16.3085 4.07059C16.6283 4.09557 16.7734 4.11871 17.0636 4.16498C18.3525 4.37048 20.358 4.76308 21.3334 5.33323M20.7203 14.343L19.9085 16.611C19.5534 17.6029 19.3759 18.0989 19.0912 18.5187C18.8388 18.8907 18.5256 19.2175 18.1646 19.4854C17.7572 19.7877 17.2693 19.9861 16.2933 20.3829L13.2424 21.6233C12.6651 21.858 12.3764 21.9754 12.1636 21.921C11.9781 21.8735 11.8219 21.7486 11.7349 21.578C11.6351 21.3824 11.6862 21.0749 11.7885 20.4601L12.2695 17.5681C12.463 16.405 12.5597 15.8235 12.8015 15.3156C13.0155 14.8658 13.3118 14.4599 13.6749 14.1189C14.0849 13.7339 14.6093 13.4644 15.658 12.9256L24.0483 8.61473C24.5404 8.36193 24.7864 8.23552 25.0651 8.21829C25.2897 8.20439 25.5746 8.26616 25.7733 8.37181C26.0199 8.50289 26.1679 8.68999 26.4639 9.0642C27.5578 10.4471 28.3937 12.0709 28.8791 13.8823C30.785 20.9952 26.5639 28.3064 19.451 30.2123C12.3381 32.1182 5.02697 27.8971 3.12108 20.7842C2.62916 18.9483 2.54541 17.0992 2.81421 15.3332" stroke="#5D5D5D" stroke-width="2" stroke-linecap="round"/>
<path d="M6.62717 4.1934C6.63596 4.15038 6.69742 4.15038 6.70621 4.1934C7.16255 6.42604 8.90734 8.17083 11.14 8.62717C11.183 8.63596 11.183 8.69742 11.14 8.70621C8.90734 9.16255 7.16255 10.9073 6.70621 13.14C6.69742 13.183 6.63596 13.183 6.62717 13.14C6.17083 10.9073 4.42604 9.16255 2.1934 8.70621C2.15038 8.69742 2.15038 8.63596 2.1934 8.62717C4.42604 8.17083 6.17083 6.42604 6.62717 4.1934Z" stroke="#0ABAB5" stroke-width="2"/>
</svg>
