<svg width="48" height="48" viewBox="0 0 48 48" fill="none" xmlns="http://www.w3.org/2000/svg">
<path d="M37.9407 30.29C37.9539 30.2255 38.0461 30.2255 38.0593 30.29C38.7438 33.639 41.361 36.2562 44.7099 36.9407C44.7745 36.9539 44.7745 37.0461 44.7099 37.0593C41.361 37.7438 38.7438 40.361 38.0593 43.7099C38.0461 43.7744 37.9539 43.7744 37.9407 43.7099C37.2562 40.361 34.639 37.7438 31.2901 37.0593C31.2255 37.0461 31.2255 36.9539 31.2901 36.9407C34.639 36.2562 37.2562 33.639 37.9407 30.29Z" stroke="white" stroke-width="3"/>
<path d="M29.636 12.364L9.12994 32.8701C7.56784 34.4322 7.56784 36.9648 9.12994 38.5269C10.692 40.089 13.2247 40.089 14.7868 38.5269L35.2929 18.0208M29.636 12.364L33.1716 8.82843C34.7337 7.26634 37.2663 7.26634 38.8284 8.82843C40.3905 10.3905 40.3905 12.9232 38.8284 14.4853L35.2929 18.0208M29.636 12.364L35.2929 18.0208" stroke="white" stroke-width="3" stroke-linecap="round"/>
<path d="M14.0625 1.58695C14.271 0.566555 15.729 0.566557 15.9375 1.58695C16.3982 3.84061 18.1594 5.60181 20.413 6.06244C21.4334 6.271 21.4334 7.72896 20.413 7.93752C18.1594 8.39815 16.3982 10.1594 15.9375 12.413C15.729 13.4334 14.271 13.4334 14.0625 12.413C13.6018 10.1594 11.8406 8.39815 9.58697 7.93752C8.56657 7.72896 8.56657 6.271 9.58697 6.06244C11.8406 5.60181 13.6018 3.84061 14.0625 1.58695Z" fill="white"/>
</svg>
