<svg width="157" height="30" viewBox="0 0 157 30" fill="none" xmlns="http://www.w3.org/2000/svg">
<path d="M3.82878 8.80417C1.35659 10.5926 -0.531798 13.7974 0.135394 16.9122C0.629831 19.2227 2.30377 21.1912 4.19812 22.4995C4.29939 22.5656 4.16995 22.4879 4.53767 22.7276C2.31568 20.195 1.27915 16.8402 2.91139 13.7134C3.72155 12.159 5.13337 10.7486 6.712 9.98646C10.6377 8.08999 15.8084 10.1125 19.3648 12.255C22.7782 14.1875 26.1976 16.12 29.611 18.0464C31.7674 19.2647 33.8703 20.7351 36.1697 21.6653C38.4691 22.5956 41.0188 23.3037 43.479 23.4058C46.6601 23.5378 50.8718 22.8056 52.8674 19.9489C53.5227 19.0067 53.7788 17.8724 53.5941 16.7381C53.5167 16.258 53.3753 15.9265 53.1668 15.4884C53.0536 15.2483 52.498 14.2835 52.498 14.2835C52.5814 17.7524 48.9357 20.201 45.8559 20.5911C42.4961 21.0172 38.9338 19.9489 35.9672 18.4065C35.8897 18.3645 35.0379 17.8664 35.026 17.8784C39.5772 12.213 43.479 6.79735 52.2836 10.5446C53.2784 11.0847 54.2137 11.7629 55 12.5791C53.618 6.13351 45.4032 5.36532 40.4648 7.80792C38.5704 8.74415 36.9382 10.1245 35.5144 11.6729C35.2166 11.997 31.9342 16.126 31.9581 16.138L24.3449 11.8349L32.9827 0H28.6161C28.5804 0 28.4493 0.222054 28.4315 0.252061C28.2647 0.480117 28.0919 0.708173 27.9251 0.936229C27.6749 1.27831 27.4247 1.61439 27.1686 1.95648C26.8588 2.37658 26.549 2.79069 26.2393 3.21079C25.8997 3.67291 25.5542 4.13502 25.2147 4.59713C24.8751 5.05925 24.5177 5.53937 24.1662 6.01348C23.8147 6.4876 23.505 6.9137 23.1714 7.35781C22.8795 7.74791 22.5935 8.13801 22.3016 8.5341C22.0812 8.83418 21.8608 9.13425 21.6345 9.43433C21.5034 9.60837 21.3783 9.78241 21.2472 9.95645C21.2234 9.98646 21.1996 10.0165 21.1817 10.0465C21.1341 10.0105 21.0507 9.95045 20.9911 9.91445C20.9017 9.86043 20.8064 9.80642 20.7111 9.7524C20.5026 9.63237 20.2882 9.51835 20.0737 9.39832C19.9426 9.3263 19.8116 9.23627 19.6686 9.17626C16.3624 7.3038 12.2163 6.27754 8.43359 6.9077C6.90262 7.16576 5.42527 7.7239 4.12663 8.58811C4.02536 8.65413 3.92409 8.72615 3.81686 8.79817L3.82878 8.80417Z" fill="white"/>
<path d="M21.7535 15.2378L18.7214 13.4913C18.5665 13.5213 16.6662 15.8739 16.41 16.114C15.5701 16.9002 14.748 17.7284 13.8544 18.4545C12.2996 19.7209 10.5363 20.5791 8.5169 20.6991C8.02842 20.7291 7.53994 20.7291 7.05146 20.6991C6.92636 20.6931 5.94976 20.6235 5.88983 20.5491C7.40888 22.4755 10.1015 22.7816 12.3592 22.2895C15.6713 21.6293 18.4712 18.9947 20.7289 16.4561C20.8063 16.366 21.7535 15.2378 21.7535 15.2378Z" fill="white"/>
<path d="M32.5673 21.4107L29.4398 19.6583L22.0411 29.8968H26.3541L32.5673 21.4107Z" fill="white"/>
<path d="M156.994 21.6151C156.111 23.2693 154.996 24.4756 153.645 25.24C152.299 26.0044 150.918 26.3866 149.507 26.3866C148.494 26.3866 147.51 26.1955 146.538 25.8133C145.589 25.4311 144.748 24.8698 144.012 24.1293C143.277 23.3888 142.685 22.4751 142.246 21.3942C141.807 20.3133 141.582 19.0831 141.582 17.7036C141.582 16.3241 141.801 15.1895 142.246 14.1743C142.708 13.1352 143.307 12.2633 144.048 11.5646C144.807 10.842 145.66 10.3045 146.609 9.94025C147.557 9.58194 148.523 9.39682 149.513 9.39682C150.503 9.39682 151.428 9.58791 152.228 9.9701C153.052 10.3284 153.746 10.8002 154.315 11.3675C154.884 11.9169 155.316 12.5201 155.607 13.1829C155.921 13.8398 156.081 14.4669 156.081 15.0581C156.081 15.3149 156.016 15.4821 155.891 15.5657C155.785 15.6493 155.619 15.7269 155.388 15.7866L144.398 19.1607C144.587 20.1162 144.902 20.9642 145.346 21.7047C145.791 22.4452 146.295 23.0723 146.864 23.5799C147.451 24.0695 148.097 24.4517 148.79 24.7264C149.507 24.9832 150.231 25.1086 150.966 25.1086C152.038 25.1086 153.094 24.822 154.125 24.2487C155.18 23.6575 156.069 22.7319 156.81 21.4838L157 21.6092L156.994 21.6151ZM144.178 16.8735C144.178 17.2318 144.19 17.5722 144.208 17.8887C144.232 18.2052 144.273 18.5158 144.333 18.8084L152.287 16.4197C152.856 16.2524 153.224 16.0793 153.39 15.9121C153.556 15.721 153.645 15.4463 153.645 15.082C153.645 13.1531 153.236 11.7736 152.412 10.9495C151.612 10.1015 150.645 9.67749 149.507 9.67749C147.8 9.67749 146.484 10.3165 145.56 11.5885C144.635 12.8605 144.173 14.6221 144.173 16.8675L144.178 16.8735Z" fill="white"/>
<path d="M119.929 17.8947V20.4686C119.952 21.4241 119.982 22.3258 120.024 23.1738C120.089 23.9979 120.172 24.7026 120.278 25.2699C120.403 25.8193 120.575 26.094 120.782 26.094H118.636C118.85 26.094 119.004 25.8193 119.111 25.2699C119.235 24.6966 119.318 23.9979 119.366 23.1738C119.431 22.3258 119.46 21.4241 119.46 20.4686C119.484 19.5131 119.49 18.6532 119.49 17.8947V9.46852C119.49 8.51303 119.46 7.62323 119.395 6.79912C119.354 5.95112 119.271 5.25243 119.14 4.69705C119.016 4.12376 118.826 3.83711 118.571 3.83711H121.571L128.862 18.8801L135.714 3.83711H138.713C138.482 3.83711 138.304 4.12376 138.174 4.69705C138.049 5.24646 137.955 5.95112 137.889 6.79912C137.848 7.62323 137.818 8.519 137.795 9.46852V20.4746C137.812 21.4301 137.848 22.3318 137.889 23.1798C137.955 24.0039 138.049 24.7086 138.174 25.2759C138.298 25.8253 138.476 26.1 138.713 26.1H134.327C134.582 26.1 134.771 25.8253 134.896 25.2759C135.02 24.7026 135.109 24.0039 135.151 23.1798C135.216 22.3318 135.246 21.4301 135.246 20.4746C135.269 19.5191 135.275 18.6591 135.275 17.9007V5.90933L127.795 22.1287H127.54L119.929 6.22583V17.9007V17.8947Z" fill="white"/>
<path d="M115.709 21.6151C114.825 23.2693 113.711 24.4756 112.36 25.24C111.014 26.0044 109.633 26.3866 108.222 26.3866C107.208 26.3866 106.224 26.1955 105.252 25.8133C104.304 25.4311 103.462 24.8698 102.727 24.1293C101.992 23.3888 101.399 22.4751 100.961 21.3942C100.522 20.3133 100.297 19.0831 100.297 17.7036C100.297 16.3241 100.516 15.1895 100.961 14.1743C101.423 13.1352 102.022 12.2633 102.763 11.5646C103.521 10.842 104.375 10.3045 105.318 9.94025C106.266 9.58194 107.232 9.39682 108.222 9.39682C109.212 9.39682 110.137 9.58791 110.937 9.9701C111.755 10.3284 112.454 10.8002 113.023 11.3675C113.593 11.9169 114.025 12.5201 114.316 13.1829C114.63 13.8398 114.79 14.4669 114.79 15.0581C114.79 15.3149 114.725 15.4821 114.6 15.5657C114.494 15.6493 114.328 15.7269 114.096 15.7866L103.107 19.1607C103.296 20.1162 103.61 20.9642 104.055 21.7047C104.5 22.4452 105.003 23.0723 105.572 23.5799C106.159 24.0695 106.805 24.4517 107.499 24.7264C108.216 24.9832 108.939 25.1086 109.68 25.1086C110.753 25.1086 111.808 24.822 112.84 24.2487C113.895 23.6575 114.79 22.7319 115.525 21.4838L115.715 21.6092L115.709 21.6151ZM102.893 16.8735C102.893 17.2318 102.905 17.5722 102.923 17.8887C102.941 18.2052 102.988 18.5158 103.047 18.8084L111.002 16.4197C111.571 16.2524 111.939 16.0793 112.105 15.9121C112.271 15.721 112.36 15.4463 112.36 15.082C112.36 13.1531 111.951 11.7736 111.127 10.9495C110.326 10.1015 109.36 9.67749 108.222 9.67749C106.515 9.67749 105.199 10.3165 104.274 11.5885C103.35 12.8605 102.887 14.6221 102.887 16.8675L102.893 16.8735Z" fill="white"/>
<path d="M98.074 21.6151C97.1908 23.2693 96.0764 24.4756 94.7249 25.24C93.3794 26.0044 91.9982 26.3866 90.5875 26.3866C89.5738 26.3866 88.5899 26.1955 87.6177 25.8133C86.6693 25.4311 85.8276 24.8698 85.0926 24.1293C84.3575 23.3888 83.7648 22.4751 83.3261 21.3942C82.8816 20.3133 82.6622 19.0831 82.6622 17.7036C82.6622 16.3241 82.8816 15.1895 83.3261 14.1743C83.7885 13.1352 84.3872 12.2633 85.1281 11.5646C85.8869 10.842 86.7404 10.3045 87.6889 9.94025C88.6373 9.58194 89.6035 9.39682 90.5934 9.39682C91.5833 9.39682 92.508 9.58791 93.3082 9.9701C94.1263 10.3284 94.8257 10.8002 95.3948 11.3675C95.9638 11.9169 96.3965 12.5201 96.687 13.1829C97.0011 13.8398 97.1612 14.4669 97.1612 15.0581C97.1612 15.3149 97.096 15.4821 96.9715 15.5657C96.8648 15.6493 96.6988 15.7269 96.4677 15.7866L85.4779 19.1607C85.6675 20.1162 85.9817 20.9642 86.4263 21.7047C86.8708 22.4452 87.3747 23.0723 87.9437 23.5799C88.5306 24.0695 89.1767 24.4517 89.8702 24.7264C90.5875 24.9832 91.3106 25.1086 92.0457 25.1086C93.1186 25.1086 94.1737 24.822 95.2051 24.2487C96.2602 23.6575 97.1553 22.7319 97.8903 21.4838L98.08 21.6092L98.074 21.6151ZM85.2585 16.8735C85.2585 17.2318 85.2704 17.5722 85.2882 17.8887C85.3119 18.2052 85.3534 18.5158 85.4127 18.8084L93.3675 16.4197C93.9366 16.2524 94.3041 16.0793 94.4701 15.9121C94.636 15.721 94.7249 15.4463 94.7249 15.082C94.7249 13.1531 94.3159 11.7736 93.492 10.9495C92.6918 10.1015 91.7256 9.67749 90.5875 9.67749C88.8803 9.67749 87.5644 10.3165 86.6397 11.5885C85.715 12.8605 85.2526 14.6221 85.2526 16.8675L85.2585 16.8735Z" fill="white"/>
<path d="M79.1646 20.0267C79.1646 21.1732 78.9453 22.1586 78.5007 22.9827C78.0561 23.7889 77.4693 24.4577 76.7343 24.9833C75.9993 25.5148 75.1457 25.8969 74.1795 26.1298C73.2133 26.3866 72.1878 26.512 71.1149 26.512C69.6804 26.512 68.2519 26.309 66.8233 25.9089C65.4125 25.5088 64.1381 24.9355 63 24.189L64.4819 21.7406C65.4303 23.2693 66.5744 24.3801 67.9259 25.0788C69.2714 25.7775 70.5873 26.1298 71.8736 26.1298C72.5494 26.1298 73.1896 26.0343 73.8001 25.8432C74.4107 25.6521 74.9382 25.3774 75.3769 25.0191C75.8392 24.6369 76.2008 24.183 76.4498 23.6515C76.7224 23.1201 76.8588 22.505 76.8588 21.8063C76.8588 20.7254 76.5446 19.7938 75.9104 19.0055C75.2761 18.2232 74.4877 17.5125 73.5452 16.8735C72.6205 16.2346 71.6069 15.6314 70.5162 15.0581C69.4196 14.4848 68.4001 13.8817 67.4516 13.2427C66.5269 12.5858 65.7445 11.8751 65.1162 11.1107C64.4819 10.3284 64.1677 9.40282 64.1677 8.34581C64.1677 7.5217 64.3574 6.78716 64.7368 6.14818C65.1339 5.5092 65.6496 4.98368 66.2839 4.55968C66.9359 4.13568 67.6828 3.81918 68.5245 3.60419C69.39 3.39518 70.285 3.28769 71.2098 3.28769C72.2174 3.28769 73.2311 3.42503 74.2388 3.69974C75.2702 3.95652 76.2245 4.35664 77.1137 4.90604L75.9459 7.03798C74.9975 5.975 73.9661 5.17478 72.8517 4.6194C71.7373 4.04611 70.6822 3.75946 69.6923 3.75946C68.7024 3.75946 67.914 4.04611 67.262 4.6194C66.6099 5.19269 66.2839 6.08249 66.2839 7.2888C66.2839 8.0711 66.5981 8.79369 67.2323 9.45059C67.8666 10.0896 68.6549 10.7106 69.5974 11.3257C70.5636 11.9169 71.6069 12.5141 72.7213 13.1053C73.8357 13.6965 74.8671 14.3355 75.8155 15.0163C76.7817 15.6971 77.5819 16.4376 78.2162 17.2438C78.8505 18.05 79.1646 18.9697 79.1646 20.0087V20.0267Z" fill="white"/>
</svg>
