<svg width="48" height="48" viewBox="0 0 48 48" fill="none" xmlns="http://www.w3.org/2000/svg">
<path d="M13.0625 18.587C13.271 17.5666 14.729 17.5666 14.9375 18.587C15.3982 20.8406 17.1594 22.6019 19.413 23.0625C20.4334 23.271 20.4334 24.729 19.413 24.9376C17.1594 25.3982 15.3982 27.1594 14.9375 29.4131C14.729 30.4335 13.271 30.4335 13.0625 29.4131C12.6018 27.1594 10.8406 25.3982 8.58698 24.9376C7.56658 24.729 7.56658 23.271 8.58697 23.0625C10.8406 22.6019 12.6018 20.8407 13.0625 18.587Z" fill="white"/>
<path d="M7.43748 11.7522C7.56262 11.14 8.43739 11.14 8.56253 11.7522C8.8389 13.1044 9.89563 14.1611 11.2478 14.4375C11.8601 14.5626 11.8601 15.4374 11.2478 15.5626C9.89563 15.8389 8.8389 16.8957 8.56253 18.2478C8.43739 18.8601 7.56262 18.8601 7.43748 18.2478C7.1611 16.8957 6.10438 15.8389 4.75219 15.5626C4.13995 15.4374 4.13995 14.5626 4.75219 14.4375C6.10438 14.1611 7.1611 13.1044 7.43748 11.7522Z" fill="white"/>
<path d="M26 7L26.0001 41M18 15L18.0001 17M18 31L18.0001 33M34 15L34.0001 33M42 22L42.0001 26" stroke="white" stroke-width="3" stroke-linecap="round"/>
</svg>
